<?xml version="1.0" standalone="no"?>
<!DOCTYPE svg PUBLIC "-//W3C//DTD SVG 20010904//EN"
 "http://www.w3.org/TR/2001/REC-SVG-20010904/DTD/svg10.dtd">
<svg version="1.0" xmlns="http://www.w3.org/2000/svg"
 width="296.000000pt" height="296.000000pt" viewBox="0 0 296.000000 296.000000"
 preserveAspectRatio="xMidYMid meet">
<metadata>
Created by potrace 1.11, written by Peter Selinger 2001-2013
</metadata>
<g transform="translate(0.000000,296.000000) scale(0.100000,-0.100000)"
fill="#000000" stroke="none">
<path d="M1349 2896 c-2 -2 -29 -6 -59 -10 -30 -3 -91 -14 -135 -25 -408 -99
-749 -372 -930 -746 -90 -184 -133 -352 -141 -550 -3 -66 -7 -126 -9 -132 -3
-7 -1 -13 3 -13 4 0 8 -27 10 -59 2 -33 5 -69 7 -80 3 -12 7 -31 10 -43 3 -13
8 -36 11 -53 11 -65 80 -253 115 -317 21 -37 35 -68 33 -68 -3 0 0 -6 6 -13 5
-6 27 -37 47 -67 20 -30 40 -56 45 -58 4 -2 8 -10 8 -17 0 -7 7 -16 16 -19 9
-4 14 -9 11 -13 -4 -3 5 -14 18 -25 14 -11 23 -24 19 -29 -3 -5 -2 -8 3 -7 5
2 34 -22 65 -52 86 -85 106 -101 213 -171 149 -96 293 -158 437 -190 32 -6 55
-15 53 -19 -2 -3 9 -4 26 -2 16 2 35 0 42 -5 6 -5 81 -8 164 -8 84 0 153 -4
153 -8 0 -5 6 -5 13 0 6 4 17 8 24 9 6 1 29 5 50 8 64 10 95 16 173 38 41 11
85 21 97 22 11 0 19 4 16 9 -2 4 2 7 9 7 19 0 209 95 262 131 25 17 51 27 57
23 7 -4 9 -3 6 3 -4 6 19 31 51 55 67 54 170 155 221 218 20 25 39 46 44 48 4
2 7 10 7 18 0 8 4 14 9 14 5 0 16 15 25 33 9 17 26 48 38 67 37 63 58 105 58
117 0 6 4 13 8 15 14 6 85 223 97 298 3 19 9 60 14 90 12 74 7 340 -8 420 -62
331 -236 630 -492 843 -48 39 -226 157 -238 157 -5 0 -25 9 -44 20 -69 41
-274 106 -392 125 -45 7 -340 17 -346 11z"/>
</g>
</svg>
