<svg xmlns="http://www.w3.org/2000/svg" width="128" height="128" viewBox="0 0 128 128">
  <g fill="#33FAD7" fill-rule="evenodd" transform="translate(19 14)">
    <path d="M45.082633,39.9883598 C39.8915635,39.9883598 35.6688399,44.1936731 35.6688399,49.3633598 C35.6688399,54.5330466 39.8915635,58.7383569 45.082633,58.7383569 C50.2737146,58.7383569 54.4964262,54.5330466 54.4964262,49.3633598 C54.4964262,44.1936731 50.2737146,39.9883598 45.082633,39.9883598 L45.082633,39.9883598 Z M45.082633,55.6133569 C41.6221305,55.6133569 38.806771,52.8094531 38.806771,49.3633598 C38.806771,45.9171088 41.6221305,43.1133598 45.082633,43.1133598 C48.542989,43.1133598 51.3584951,45.9171088 51.3584951,49.3633598 C51.3584951,52.809453 48.542989,55.6133569 45.082633,55.6133569 L45.082633,55.6133569 Z"/>
    <path d="M77.9728592,49.9999225 C87.8540429,40.335077 92.4054578,30.9097647 88.9799354,25.0003905 C87.1125514,21.7794537 83.1739777,19.9994534 77.5892425,19.7478906 C76.9968045,18.3388278 75.5999533,17.3472659 73.9707415,17.3472659 C72.1836899,17.3472659 70.6914478,18.5467975 70.2190296,20.1755466 C69.7116283,20.2480467 69.2020246,20.3230472 68.678308,20.4128908 C66.4555509,20.7941414 64.1268931,21.3405477 61.7386114,22.0039847 C58.2755918,8.64335969 52.3543188,0.000390625 45.5001376,0.000390625 C38.6458039,0.000390625 32.7246774,8.64335984 29.2614995,22.0036717 C26.8735349,21.3405477 24.5455116,20.7938286 22.3225929,20.4128908 C11.972597,18.6358603 4.76445703,20.2663289 2.02033697,25.0003906 C0.371981641,27.8436722 0.580967848,31.5038295 2.3303644,35.6096091 C1.59357788,36.3199206 1.13183949,37.3107047 1.13183949,38.4116412 C1.13183949,40.5682028 2.88908071,42.3178912 5.05425328,42.3178912 C5.43534732,42.3178912 5.79637397,42.2467978 6.14483352,42.1457023 C8.00139042,44.7008581 10.3082399,47.3403902 13.0275711,49.9999227 C3.14606942,59.6647681 -1.40581303,69.0899195 2.02033713,74.9996067 C4.0413213,78.4847678 8.48149355,80.286795 14.8133667,80.286795 C17.0817768,80.286795 19.5938564,80.0563277 22.3225932,79.5878887 C24.5455119,79.2067945 26.8735352,78.6602319 29.2614998,77.9969514 C32.7246777,91.3569511 38.6459539,99.9996067 45.5001379,99.9996067 C49.0629412,99.9996067 52.3712628,97.6527334 55.2159526,93.5341419 C55.382423,93.5553909 55.5463796,93.5844542 55.7186495,93.5844542 C57.883668,93.5844542 59.6410633,91.8344559 59.6410633,89.6782042 C59.6410633,88.7038292 59.2695305,87.8238262 58.6763084,87.1392967 C59.8373396,84.4341398 60.8656445,81.364453 61.7386114,77.9967966 C64.1268931,78.660232 66.4555511,79.2066397 68.678308,79.5878889 C71.4079934,80.0563278 73.9184915,80.2867952 76.186903,80.2867952 C82.5178341,80.2867952 86.9597332,78.484768 88.9799356,74.9996069 C92.4054578,69.0902352 87.8540429,59.664923 77.9728592,49.9999225 L77.9728592,49.9999225 Z M69.2108226,23.4921098 C69.6945227,23.4091402 70.1622305,23.3419537 70.6299384,23.2746095 C71.3187189,24.4003908 72.5512962,25.1597644 73.9707414,25.1597644 C75.5536702,25.1597644 76.9101935,24.2197664 77.5297801,22.8742973 C81.9015453,23.0791406 84.9654224,24.3258597 86.2618551,26.5628906 C88.7317262,30.8224233 84.9007831,38.9555456 75.7176269,47.8811712 C72.4477418,44.9069531 68.695563,41.9344545 64.5326249,39.0552344 C64.1119901,34.0442958 63.4072172,29.338673 62.4612796,25.0446083 C64.787268,24.3952348 67.0519269,23.8624216 69.2108226,23.4921098 L69.2108226,23.4921098 Z M53.6750751,64.1017973 C50.9543374,65.6666398 48.2193072,67.1088278 45.5004489,68.4241414 C42.7820603,67.1088278 40.0470392,65.6666398 37.3258257,64.1017973 C34.5442073,62.502265 31.9299959,60.8669519 29.4725262,59.2161716 C29.265734,56.2713266 29.1508884,53.1989873 29.1508884,50.0003934 C29.1508884,46.8013287 29.265734,43.7289834 29.4725262,40.7838286 C31.9299959,39.1330481 34.5442073,37.4977352 37.3258257,35.8982028 C40.0468895,34.3336733 42.7817461,32.8910144 45.5004489,31.5757037 C48.2191515,32.8910144 50.9541697,34.3336733 53.6750751,35.8982028 C56.4563762,37.4975772 59.0702733,39.1327353 61.5275995,40.7833608 C61.7343798,43.7286706 61.849384,46.8011709 61.849384,50.0003936 C61.849384,53.1992973 61.7343798,56.2713267 61.5275995,59.2164817 C59.0702733,60.8671069 56.4563762,62.502265 53.6750751,64.1017973 L53.6750751,64.1017973 Z M61.1839932,63.1824195 C60.7787222,67.0894503 60.1999304,70.7249223 59.4824392,74.0533591 C56.1246983,72.9800761 52.6566635,71.6617942 49.1260122,70.0960159 C51.166923,69.0592945 53.2097193,67.9786742 55.2440404,66.8086708 C57.2960958,65.6288266 59.2739233,64.4158602 61.1839932,63.1824195 L61.1839932,63.1824195 Z M41.8748824,70.0960159 C38.343926,71.6617942 34.8758851,72.980237 31.5176715,74.0535141 C30.8001832,70.7246066 30.2213914,67.0891405 29.8159708,63.1816387 C31.7265017,64.4155444 33.7044968,65.6283617 35.7568602,66.8086708 C37.7914928,67.9786742 39.8339716,69.0592945 41.8748824,70.0960159 L41.8748824,70.0960159 Z M26.19621,56.9374203 C22.9853232,54.6225786 20.1009373,52.2941409 17.5557704,49.9999225 C20.1009373,47.7058589 22.9853233,45.3772664 26.1963686,43.0625766 C26.0788536,45.3274219 26.0129573,47.6400792 26.0129573,50.0003933 C26.0129573,52.3605466 26.0785395,54.6727359 26.19621,56.9374203 L26.19621,56.9374203 Z M29.8161294,36.8183583 C30.2213915,32.9108595 30.8001834,29.2755455 31.5176716,25.9467959 C34.8758852,27.0199209 38.3442403,28.3386708 41.8753553,29.904297 C39.8342859,30.9410155 37.7916512,32.0214837 35.7568602,33.1913292 C33.7044968,34.3714833 31.7265017,35.5844528 29.8161294,36.8183583 L29.8161294,36.8183583 Z M49.1257011,29.904297 C52.6566635,28.3386708 56.1246984,27.0202339 59.4824392,25.9469539 C60.1999304,29.2755455 60.7787222,32.9105467 61.1839932,36.8175775 C59.2739233,35.5839848 57.2960958,34.3711705 55.2440406,33.1913292 C53.209402,32.0214837 51.1667675,30.9410155 49.1257011,29.904297 L49.1257011,29.904297 Z M64.8037451,43.0622667 C68.0149461,45.3771084 70.8994907,47.7057041 73.4446666,49.9999225 C70.8994907,52.2942959 68.0149461,54.6228886 64.8040564,56.9377362 C64.9215744,54.6730458 64.987315,52.3605466 64.987315,50.0003934 C64.987315,47.6397664 64.9214186,45.3271091 64.8037451,43.0622667 L64.8037451,43.0622667 Z M45.5001376,3.12539078 C50.441286,3.12539078 55.6006644,10.5033595 58.7702867,22.8966403 C54.4837197,24.2538291 50.0225186,26.0096106 45.5004489,28.1291398 C40.9782205,26.0092977 36.516397,24.2535162 32.2299826,22.8961723 C35.3994494,10.5032034 40.5591478,3.12539078 45.5001376,3.12539078 L45.5001376,3.12539078 Z M8.52495358,40.1942969 C8.80408055,39.657578 8.97666613,39.0575767 8.97666613,38.4116411 C8.97666613,36.3078892 7.29990468,34.6027344 5.20690452,34.5208584 C3.80111158,31.2575786 3.61142412,28.5060167 4.73841189,26.5628903 C6.16020829,24.1092964 9.68897726,22.8321089 14.7612763,22.8321089 C16.8542773,22.8321089 19.2114901,23.0496092 21.7902426,23.4921097 C23.9486685,23.8624214 26.2133213,24.3949219 28.5391483,25.0444531 C27.5932166,29.3385148 26.8881236,34.0444534 26.4676414,39.055547 C22.3045506,41.9347644 18.5526815,44.9074208 15.2826437,47.8813289 C12.5458976,45.2213287 10.2859595,42.6319539 8.52495358,40.1942969 L8.52495358,40.1942969 Z M21.7902428,76.5086711 C12.9587009,78.0208587 6.74716707,76.9024194 4.73841126,73.4371067 C2.26854543,69.17758 6.09933148,61.0442997 15.2826432,52.1186711 C18.552681,55.0925792 22.3045501,58.0652358 26.4676409,60.9442952 C26.888123,65.9557047 27.5929048,70.6617953 28.5389892,74.955857 C26.2129983,75.6053925 23.9486686,76.1380494 21.7902428,76.5086711 L21.7902428,76.5086711 Z M55.8956294,85.7899189 C55.8356943,85.7872666 55.7792127,85.7719541 55.7186492,85.7719541 C53.5534751,85.7719541 51.7962354,87.5219523 51.7962354,89.6782041 C51.7962354,90.5388295 52.0847664,91.3272678 52.5585972,91.9730484 C50.3199975,95.1453923 47.8852773,96.8746066 45.5001376,96.8746066 C40.5591478,96.8746066 35.3999191,89.4969522 32.2301382,77.1046102 C36.5168667,75.7472634 40.9782205,73.9913284 45.5004489,71.8711733 C50.0223751,73.9911734 54.4837197,75.7472633 58.7699755,77.1042942 C57.9368515,80.3628922 56.9640946,83.2677364 55.8956294,85.7899189 L55.8956294,85.7899189 Z M86.2618551,73.4371066 C84.2531144,76.9024192 78.0370258,78.0208587 69.2108227,76.5086709 C67.0519269,76.1380492 64.7872682,75.6053923 62.4612796,74.9557017 C63.4070497,70.6614852 64.1119899,65.9558594 64.5326249,60.9447656 C68.6957186,58.0653905 72.4477418,55.0930439 75.7176269,52.1188258 C84.9007831,61.0444545 88.7317262,69.1775798 86.2618551,73.4371066 L86.2618551,73.4371066 Z"/>
  </g>
</svg>
