<svg xmlns="http://www.w3.org/2000/svg" width="128" height="128" viewBox="0 0 128 128" xmlns:xlink="http://www.w3.org/1999/xlink">
  <defs>
    <path id="a" d="M0,8.91785714 C0.00294879117,3.99318842 3.9849862,0.00197016321 8.89734375,-9.90674489e-16 L105.102656,-9.90674489e-16 C107.462794,-0.00237155703 109.726973,0.936367015 111.396011,2.60925257 C113.065048,4.28213812 114.001893,6.55180359 114,8.91785714 L114,91.0821429 C113.997051,96.0068116 110.015014,99.9980298 105.102656,100 L8.89734375,100 C6.53720576,100.002372 4.27302692,99.063633 2.60398944,97.3907474 C0.934951961,95.7178619 -0.0018930807,93.4481964 -9.86814983e-16,91.0821429 L-9.86814983e-16,8.91785714 L0,8.91785714 Z"/>
    <linearGradient id="c" x1="47.952%" x2="47.952%" y1="97.595%" y2="0%">
      <stop stop-color="#FFB300" offset="0%"/>
      <stop stop-color="#DD3939" offset="61.372%"/>
      <stop stop-color="#FF1BB4" offset="100%"/>
    </linearGradient>
    <path id="d" d="M0,8.91785714 C0.00294879117,3.99318842 3.9849862,0.00197016321 8.89734375,-9.90674489e-16 L105.102656,-9.90674489e-16 C107.462794,-0.00237155703 109.726973,0.936367015 111.396011,2.60925257 C113.065048,4.28213812 114.001893,6.55180359 114,8.91785714 L114,91.0821429 C113.997051,96.0068116 110.015014,99.9980298 105.102656,100 L8.89734375,100 C6.53720576,100.002372 4.27302692,99.063633 2.60398944,97.3907474 C0.934951961,95.7178619 -0.0018930807,93.4481964 -9.86814983e-16,91.0821429 L-9.86814983e-16,8.91785714 L0,8.91785714 Z"/>
  </defs>
  <g fill="none" fill-rule="evenodd" transform="translate(7 14)">
    <mask id="b" fill="white">
      <use xlink:href="#a"/>
    </mask>
    <path fill="#000000" stroke="url(#c)" stroke-width="10.714" d="M0,8.91785714 C0.00294879117,3.99318842 3.9849862,0.00197016321 8.89734375,-9.90674489e-16 L105.102656,-9.90674489e-16 C107.462794,-0.00237155703 109.726973,0.936367015 111.396011,2.60925257 C113.065048,4.28213812 114.001893,6.55180359 114,8.91785714 L114,91.0821429 C113.997051,96.0068116 110.015014,99.9980298 105.102656,100 L8.89734375,100 C6.53720576,100.002372 4.27302692,99.063633 2.60398944,97.3907474 C0.934951961,95.7178619 -0.0018930807,93.4481964 -9.86814983e-16,91.0821429 L-9.86814983e-16,8.91785714 L0,8.91785714 Z" mask="url(#b)"/>
    <path fill="#FFFFFF" d="M33.9096562,37.3107143 L51.0488437,37.3107143 L51.0488437,40.6571429 L33.907875,40.6571429 L33.9096562,37.3107143 Z M28.6816875,28.6392857 L21.6404063,24.9071429 L26.74725,12.2107143 L11.6565,25.8446429 L18.2863125,30.3410714 L13.5891563,42.2767857 L28.6816875,28.6392857 Z"/>
    <g>
      <mask id="e" fill="white">
        <use xlink:href="#d"/>
      </mask>
      <path fill="#000000" stroke="url(#c)" stroke-width="10.714" d="M0,8.91785714 C0.00294879117,3.99318842 3.9849862,0.00197016321 8.89734375,-9.90674489e-16 L105.102656,-9.90674489e-16 C107.462794,-0.00237155703 109.726973,0.936367015 111.396011,2.60925257 C113.065048,4.28213812 114.001893,6.55180359 114,8.91785714 L114,91.0821429 C113.997051,96.0068116 110.015014,99.9980298 105.102656,100 L8.89734375,100 C6.53720576,100.002372 4.27302692,99.063633 2.60398944,97.3907474 C0.934951961,95.7178619 -0.0018930807,93.4481964 -9.86814983e-16,91.0821429 L-9.86814983e-16,8.91785714 L0,8.91785714 Z" mask="url(#e)"/>
      <path fill="#FFFFFF" d="M33.9096562,37.3107143 L51.0488437,37.3107143 L51.0488437,40.6571429 L33.907875,40.6571429 L33.9096562,37.3107143 Z M28.6816875,28.6392857 L21.6404063,24.9071429 L26.74725,12.2107143 L11.6565,25.8446429 L18.2863125,30.3410714 L13.5891563,42.2767857 L28.6816875,28.6392857 Z"/>
    </g>
  </g>
</svg>
