<svg xmlns="http://www.w3.org/2000/svg" width="128" height="128" viewBox="0 0 128 128">
  <g fill="#FE8FCF" fill-rule="evenodd" transform="translate(8 17)">
    <path d="M101.288,0.788 L7.796,0.788 C3.484,0.788 0,4.272 0,8.592 L0,86.5 C0,90.796 3.484,94.288 7.796,94.288 L101.288,94.288 C105.576,94.288 109.076,90.796 109.076,86.5 L109.076,8.592 C109.08,4.272 105.58,0.788 101.288,0.788 L101.288,0.788 Z M37.256,6.64 C39.404,6.64 41.148,8.384 41.148,10.54 C41.148,12.688 39.404,14.432 37.256,14.432 C35.108,14.432 33.36,12.688 33.36,10.54 C33.36,8.38 35.108,6.64 37.256,6.64 L37.256,6.64 Z M25.32,6.64 C27.468,6.64 29.228,8.384 29.228,10.54 C29.228,12.688 27.472,14.432 25.32,14.432 C23.168,14.432 21.428,12.688 21.428,10.54 C21.428,8.38 23.172,6.64 25.32,6.64 L25.32,6.64 Z M13.624,6.64 C15.78,6.64 17.524,8.384 17.524,10.54 C17.524,12.688 15.78,14.432 13.624,14.432 C11.492,14.432 9.74,12.688 9.74,10.54 C9.744,8.38 11.492,6.64 13.624,6.64 L13.624,6.64 Z M101.288,86.5 L7.796,86.5 L7.796,20.352 L101.288,20.352 C101.288,20.352 101.288,86.5 101.288,86.5 L101.288,86.5 Z"/>
    <path d="M58.812,52.696 L23,71.064 L23,65.744 L53.408,50.604 L53.408,50.456 L23,35.328 L23,30 L58.812,48.296 L58.812,52.696 L58.812,52.696 Z"/>
    <polygon points="86.064 67 86.064 71.936 67 71.936 67 67"/>
  </g>
</svg>
